<?xml version="1.0" standalone="no"?>
<!DOCTYPE svg PUBLIC "-//W3C//DTD SVG 20010904//EN"
 "http://www.w3.org/TR/2001/REC-SVG-20010904/DTD/svg10.dtd">
<svg version="1.0" xmlns="http://www.w3.org/2000/svg"
 width="700.000000pt" height="700.000000pt" viewBox="0 0 700.000000 700.000000"
 preserveAspectRatio="xMidYMid meet">
<metadata>
Created by potrace 1.14, written by Peter Selinger 2001-2017
</metadata>
<g transform="translate(0.000000,700.000000) scale(0.100000,-0.100000)"
fill="#000000" stroke="none">
<path d="M1525 6984 c-201 -27 -379 -81 -550 -166 -500 -250 -836 -694 -947
-1250 l-23 -113 -3 -1885 c-2 -1297 0 -1918 8 -1990 85 -837 724 -1478 1562
-1569 128 -14 3723 -15 3858 -1 135 14 237 36 374 81 648 212 1113 793 1186
1481 13 126 13 3730 0 3856 -87 826 -728 1471 -1552 1561 -156 17 -3783 13
-3913 -5z m2025 -1394 c508 -32 934 -134 1184 -282 86 -51 194 -156 224 -219
33 -68 42 -142 42 -349 l0 -185 73 3 c86 5 217 -18 320 -54 364 -130 625 -470
655 -852 24 -307 -75 -581 -287 -793 -180 -179 -394 -276 -637 -286 l-121 -6
-6 -100 c-5 -81 -12 -111 -35 -161 -134 -287 -707 -482 -1517 -516 -452 -18
-923 24 -1274 116 -361 94 -589 231 -669 402 l-27 57 0 1330 0 1330 21 45 c71
150 256 276 539 369 251 82 512 125 935 154 111 8 429 6 580 -3z"/>
<path d="M2955 5303 c-332 -21 -611 -68 -836 -143 -208 -69 -359 -161 -359
-220 0 -60 154 -155 365 -224 279 -91 571 -133 1000 -143 489 -11 897 38 1226
147 254 84 382 177 344 250 -58 113 -455 252 -870 304 -243 31 -633 44 -870
29z"/>
<path d="M1760 3485 l0 -1064 36 -35 c123 -119 485 -233 897 -281 794 -93
1736 43 1982 286 l30 29 3 1065 c1 586 0 1065 -3 1065 -3 0 -27 -11 -53 -24
-204 -103 -559 -187 -962 -228 -168 -17 -746 -17 -910 0 -408 43 -732 118
-938 217 -41 19 -76 35 -78 35 -2 0 -4 -479 -4 -1065z m2601 752 c72 -48 69
-18 69 -737 0 -594 -1 -648 -18 -680 -53 -106 -201 -106 -254 0 -17 32 -18 86
-18 680 0 594 1 648 18 680 24 48 75 80 127 80 27 0 54 -8 76 -23z"/>
<path d="M5017 4263 c-16 -4 -17 -44 -15 -701 l3 -697 75 -3 c289 -13 573 211
660 518 28 102 29 255 1 363 -64 246 -263 445 -509 508 -69 17 -172 23 -215
12z"/>
</g>
</svg>
