<svg width="208" height="59" viewBox="0 0 208 59" fill="none" xmlns="http://www.w3.org/2000/svg">
<path d="M26.9136 20.1698C13.9532 20.1698 0 17.0129 0 10.0838C0 3.15463 13.951 0 26.9136 0C39.8763 0 53.8273 3.15683 53.8273 10.0838C53.8273 17.0107 39.8763 20.1698 26.9136 20.1698ZM26.9136 4.41207C12.0692 4.41207 4.41207 8.38293 4.41207 10.0838C4.41207 11.7846 12.067 15.7577 26.9136 15.7577C41.7602 15.7577 49.4152 11.7868 49.4152 10.0838C49.4152 8.38072 41.7668 4.41207 26.9136 4.41207Z" fill="#166088"/>
<path d="M26.9136 58.2592C13.9532 58.2592 0 55.1045 0 48.1754V10.0837H4.41207V48.1643C4.41207 49.8608 12.067 53.836 26.9136 53.836C41.7602 53.836 49.4152 49.8652 49.4152 48.1643V10.0837H53.8273V48.1643C53.8251 55.0935 39.8763 58.2592 26.9136 58.2592Z" fill="#166088"/>
<path d="M42.9795 43.6994C42.3944 43.6994 41.8333 43.467 41.4196 43.0533C41.0059 42.6396 40.7734 42.0785 40.7734 41.4934V22.645C40.7734 22.0599 41.0059 21.4988 41.4196 21.0851C41.8333 20.6714 42.3944 20.439 42.9795 20.439C43.5645 20.439 44.1257 20.6714 44.5394 21.0851C44.9531 21.4988 45.1855 22.0599 45.1855 22.645V41.4934C45.1855 42.0785 44.9531 42.6396 44.5394 43.0533C44.1257 43.467 43.5645 43.6994 42.9795 43.6994Z" fill="#166088"/>
<path d="M55.7186 46.3225C54.0281 46.3231 52.3525 46.0059 50.7793 45.3871L52.3897 41.2795C53.4498 41.6973 54.5792 41.9114 55.7186 41.9104C58.4145 41.6606 60.9199 40.4131 62.7439 38.4123C64.5679 36.4115 65.579 33.8017 65.579 31.0942C65.579 28.3868 64.5679 25.777 62.7439 23.7762C60.9199 21.7754 58.4145 20.5278 55.7186 20.278C54.6656 20.2763 53.6204 20.4585 52.6301 20.8163L51.1323 16.669C52.6004 16.1363 54.1503 15.8646 55.712 15.866C59.5831 16.1126 63.215 17.8244 65.8692 20.6531C68.5235 23.4818 70.0008 27.2152 70.0008 31.0942C70.0008 34.9732 68.5235 38.7066 65.8692 41.5354C63.215 44.3641 59.5831 46.0758 55.712 46.3225H55.7186Z" fill="#166088"/>
<path d="M80.1018 24V9.45455H83.6175V15.2926H89.349V9.45455H92.8575V24H89.349V18.1548H83.6175V24H80.1018ZM95.0628 24V9.45455H101.071C102.16 9.45455 103.1 9.65104 103.891 10.044C104.686 10.4323 105.3 10.991 105.73 11.7202C106.161 12.4446 106.377 13.304 106.377 14.2983C106.377 15.3068 106.157 16.1638 105.716 16.8693C105.276 17.5701 104.651 18.1051 103.841 18.4744C103.032 18.839 102.073 19.0213 100.965 19.0213H97.165V16.2514H100.311C100.842 16.2514 101.284 16.1828 101.639 16.0455C101.999 15.9034 102.272 15.6903 102.456 15.4062C102.641 15.1174 102.733 14.7481 102.733 14.2983C102.733 13.8485 102.641 13.4768 102.456 13.1832C102.272 12.8849 101.999 12.6624 101.639 12.5156C101.28 12.3641 100.837 12.2884 100.311 12.2884H98.5784V24H95.0628ZM103.252 17.3523L106.874 24H103.039L99.4875 17.3523H103.252ZM120.684 9.45455V24H117.701L111.913 15.6051H111.821V24H108.305V9.45455H111.331L117.055 17.8352H117.176V9.45455H120.684ZM122.895 24V9.45455H133.037V12.3097H126.41V15.2926H132.518V18.1548H126.41V21.1449H133.037V24H122.895ZM148.442 14.7244H144.891C144.843 14.3598 144.746 14.0308 144.599 13.7372C144.453 13.4437 144.258 13.1927 144.017 12.9844C143.775 12.776 143.489 12.6174 143.158 12.5085C142.831 12.3949 142.469 12.3381 142.071 12.3381C141.365 12.3381 140.757 12.5109 140.246 12.8565C139.739 13.2022 139.348 13.7017 139.074 14.3551C138.804 15.0085 138.669 15.7992 138.669 16.7273C138.669 17.6932 138.806 18.5028 139.081 19.1562C139.36 19.8049 139.751 20.295 140.253 20.6264C140.759 20.9531 141.358 21.1165 142.05 21.1165C142.438 21.1165 142.791 21.0668 143.108 20.9673C143.43 20.8679 143.712 20.7235 143.953 20.5341C144.199 20.34 144.4 20.1056 144.557 19.831C144.718 19.5516 144.829 19.2367 144.891 18.8864L148.442 18.9077C148.38 19.5516 148.193 20.1861 147.881 20.8111C147.573 21.4361 147.149 22.0066 146.609 22.5227C146.07 23.0341 145.411 23.4413 144.635 23.7443C143.863 24.0473 142.978 24.1989 141.979 24.1989C140.662 24.1989 139.483 23.91 138.442 23.3324C137.405 22.75 136.586 21.9025 135.984 20.7898C135.383 19.6771 135.082 18.3229 135.082 16.7273C135.082 15.1269 135.388 13.7704 135.998 12.6577C136.609 11.545 137.436 10.6998 138.477 10.1222C139.519 9.54451 140.686 9.25568 141.979 9.25568C142.859 9.25568 143.674 9.37879 144.422 9.625C145.17 9.86648 145.828 10.2216 146.396 10.6903C146.964 11.1544 147.426 11.7249 147.781 12.402C148.136 13.0791 148.356 13.8532 148.442 14.7244ZM140.572 4.87358L141.979 6.52131L143.392 4.87358H146.297V4.96591L143.229 8.14773H140.736L137.66 4.96591V4.87358H140.572ZM150.453 24V9.45455H153.969V15.6051H154.161L158.969 9.45455H163.11L157.953 15.946L163.202 24H158.997L155.375 18.2827L153.969 20.0582V24H150.453ZM163.772 9.45455H167.699L170.775 15.5412H170.903L173.978 9.45455H177.905L172.586 19.142V24H169.092V19.142L163.772 9.45455ZM80.2794 48V46.7216L88.1203 35.017H80.1942V33.4545H90.2226V34.733L82.3817 46.4375H90.3078V48H80.2794ZM98.8873 48V33.4545H103.802C104.943 33.4545 105.876 33.6605 106.6 34.0724C107.33 34.4796 107.869 35.0312 108.22 35.7273C108.57 36.4233 108.745 37.1998 108.745 38.0568C108.745 38.9138 108.57 39.6927 108.22 40.3935C107.874 41.0942 107.339 41.6529 106.615 42.0696C105.89 42.4815 104.962 42.6875 103.831 42.6875H100.308V41.125H103.774C104.555 41.125 105.182 40.9901 105.656 40.7202C106.129 40.4503 106.473 40.0857 106.686 39.6264C106.903 39.1624 107.012 38.6392 107.012 38.0568C107.012 37.4744 106.903 36.9536 106.686 36.4943C106.473 36.035 106.127 35.6752 105.649 35.4148C105.17 35.1496 104.536 35.017 103.745 35.017H100.649V48H98.8873ZM123.855 40.7273C123.855 42.2614 123.578 43.5871 123.024 44.7045C122.47 45.822 121.71 46.6837 120.745 47.2898C119.779 47.8958 118.675 48.1989 117.435 48.1989C116.194 48.1989 115.091 47.8958 114.125 47.2898C113.159 46.6837 112.399 45.822 111.845 44.7045C111.291 43.5871 111.014 42.2614 111.014 40.7273C111.014 39.1932 111.291 37.8674 111.845 36.75C112.399 35.6326 113.159 34.7708 114.125 34.1648C115.091 33.5587 116.194 33.2557 117.435 33.2557C118.675 33.2557 119.779 33.5587 120.745 34.1648C121.71 34.7708 122.47 35.6326 123.024 36.75C123.578 37.8674 123.855 39.1932 123.855 40.7273ZM122.151 40.7273C122.151 39.4678 121.94 38.4048 121.519 37.5384C121.102 36.6719 120.536 36.0161 119.821 35.571C119.111 35.1259 118.316 34.9034 117.435 34.9034C116.554 34.9034 115.756 35.1259 115.041 35.571C114.331 36.0161 113.765 36.6719 113.344 37.5384C112.927 38.4048 112.719 39.4678 112.719 40.7273C112.719 41.9867 112.927 43.0497 113.344 43.9162C113.765 44.7827 114.331 45.4384 115.041 45.8835C115.756 46.3286 116.554 46.5511 117.435 46.5511C118.316 46.5511 119.111 46.3286 119.821 45.8835C120.536 45.4384 121.102 44.7827 121.519 43.9162C121.94 43.0497 122.151 41.9867 122.151 40.7273ZM126.817 48V33.4545H128.578V46.4375H135.34V48H126.817ZM139.828 33.4545V48H138.067V33.4545H139.828ZM155.065 38H153.303C153.199 37.4934 153.017 37.0483 152.756 36.6648C152.501 36.2812 152.188 35.9593 151.819 35.6989C151.454 35.4337 151.049 35.2348 150.604 35.1023C150.159 34.9697 149.695 34.9034 149.212 34.9034C148.332 34.9034 147.534 35.1259 146.819 35.571C146.109 36.0161 145.543 36.6719 145.121 37.5384C144.705 38.4048 144.496 39.4678 144.496 40.7273C144.496 41.9867 144.705 43.0497 145.121 43.9162C145.543 44.7827 146.109 45.4384 146.819 45.8835C147.534 46.3286 148.332 46.5511 149.212 46.5511C149.695 46.5511 150.159 46.4848 150.604 46.3523C151.049 46.2197 151.454 46.0232 151.819 45.7628C152.188 45.4976 152.501 45.1733 152.756 44.7898C153.017 44.4015 153.199 43.9564 153.303 43.4545H155.065C154.932 44.1979 154.69 44.8632 154.34 45.4503C153.99 46.0374 153.554 46.5369 153.033 46.9489C152.512 47.3561 151.928 47.6662 151.279 47.8793C150.635 48.0923 149.946 48.1989 149.212 48.1989C147.972 48.1989 146.869 47.8958 145.903 47.2898C144.937 46.6837 144.177 45.822 143.623 44.7045C143.069 43.5871 142.792 42.2614 142.792 40.7273C142.792 39.1932 143.069 37.8674 143.623 36.75C144.177 35.6326 144.937 34.7708 145.903 34.1648C146.869 33.5587 147.972 33.2557 149.212 33.2557C149.946 33.2557 150.635 33.3622 151.279 33.5753C151.928 33.7884 152.512 34.1009 153.033 34.5128C153.554 34.92 153.99 35.4171 154.34 36.0043C154.69 36.5866 154.932 37.2519 155.065 38ZM147.735 29.0795L149.212 31.0682L150.69 29.0795H152.28V29.1932L149.979 32.1477H148.445L146.144 29.1932V29.0795H147.735ZM157.911 48V33.4545H159.672V40.6705H159.843L166.377 33.4545H168.678L162.57 40.017L168.678 48H166.547L161.49 41.2386L159.672 43.2841V48H157.911ZM169.708 33.4545H171.725L175.759 40.2443H175.929L179.963 33.4545H181.98L176.725 42.0057V48H174.963V42.0057L169.708 33.4545Z" fill="#166088"/>
</svg>
