<svg width="71" height="70" viewBox="0 0 71 70" fill="none" xmlns="http://www.w3.org/2000/svg">
<path d="M67.5556 12.9488H57.8805V2.97364C57.8805 1.33017 56.5372 0.00109863 54.908 0.00109863H3.34579C2.30254 0.00109863 1.25929 0.601324 0.816271 1.48737C0.373247 2.38771 0.373247 3.57387 0.959181 4.45991L7.96181 15.6355V67.0262C7.96181 68.6697 9.30517 69.9988 10.9344 69.9988H55.0223C56.6658 69.9988 57.8519 68.6554 57.8519 67.1692V18.9082H64.5545V46.7615C64.5545 48.405 65.8978 49.734 67.527 49.734C69.1705 49.734 70.4995 48.3907 70.4995 46.7615V15.9356C70.5281 14.2922 69.1848 12.9488 67.5556 12.9488ZM8.71923 5.80328H52.207V34.5569H13.7783V14.7495C13.7783 14.3065 13.6354 13.7062 13.3353 13.2632L8.71923 5.80328ZM13.9212 64.1966H13.7783V40.5163H52.207V64.1966H13.9212Z" fill="black"/>
</svg>
