<svg width="101" height="100" viewBox="0 0 101 100" fill="none" xmlns="http://www.w3.org/2000/svg">
<path d="M37.8186 75.3828C36.7782 75.3828 35.8864 74.6402 35.6979 73.6173C33.4151 61.2172 31.3182 53.6383 26.7815 49.1016C22.2448 44.5649 14.6654 42.4679 2.26574 40.1851C1.24261 39.9967 0.5 39.1048 0.5 38.0645C0.5 37.0241 1.24282 36.1323 2.26574 35.9438C14.6654 33.6612 22.2448 31.5643 26.7815 27.0273C31.3182 22.4904 33.4151 14.9112 35.6979 2.51159C35.8864 1.48846 36.7782 0.74585 37.8186 0.74585C38.859 0.74585 39.7508 1.48867 39.9393 2.51159C42.2219 14.9112 44.319 22.4906 48.8557 27.0273C53.3927 31.5641 60.9718 33.661 73.3715 35.9438C74.3948 36.1323 75.1372 37.0241 75.1372 38.0645C75.1372 39.1048 74.3944 39.9967 73.3715 40.1851C60.9718 42.4677 53.3927 44.5649 48.8557 49.1016C44.319 53.6383 42.2221 61.2177 39.9393 73.6173C39.7508 74.6402 38.8588 75.3828 37.8186 75.3828ZM13.1504 38.0645C20.7186 39.9486 26.0087 42.2301 29.8308 46.052C33.653 49.8739 35.9345 55.1643 37.8184 62.7324C39.7025 55.1643 41.984 49.8742 45.8059 46.052C49.6279 42.2299 54.9184 39.9484 62.4861 38.0645C54.9182 36.1803 49.6281 33.8988 45.8059 30.0769C41.9838 26.255 39.7023 20.9646 37.8184 13.3965C35.9343 20.9646 33.6528 26.2548 29.8308 30.0769C26.0089 33.899 20.7186 36.1803 13.1504 38.0645Z" fill="black"/>
<path d="M75.982 99.254C74.9414 99.254 74.0498 98.5114 73.8611 97.4885C72.438 89.7584 71.1477 85.05 68.4078 82.3101C65.6674 79.57 60.9595 78.2797 53.2294 76.8565C52.2065 76.6683 51.4639 75.7763 51.4639 74.7361C51.4639 73.6955 52.2065 72.8037 53.2294 72.6152C60.9595 71.1923 65.6679 69.9018 68.4078 67.1617C71.1477 64.4215 72.438 59.7134 73.8611 51.9835C74.0498 50.9604 74.9418 50.2178 75.982 50.2178C77.0222 50.2178 77.9142 50.9606 78.1024 51.9835C79.526 59.7134 80.8163 64.422 83.5562 67.1617C86.2961 69.9018 91.0045 71.1923 98.7346 72.6152C99.7575 72.8037 100.5 73.6955 100.5 74.7361C100.5 75.7763 99.7577 76.6683 98.7346 76.8565C91.0045 78.2797 86.2961 79.57 83.5562 82.3101C80.8163 85.05 79.526 89.7584 78.1024 97.4885C77.9142 98.5114 77.0224 99.254 75.982 99.254ZM63.1975 74.7359C70.4616 76.9928 73.7251 80.2563 75.982 87.5206C78.2385 80.2563 81.5024 76.9928 88.7665 74.7359C81.5024 72.4792 78.2389 69.2157 75.982 61.9511C73.7253 69.2157 70.4618 72.4792 63.1975 74.7359Z" fill="black"/>
</svg>
