<svg width="91" height="90" viewBox="0 0 91 90" fill="none" xmlns="http://www.w3.org/2000/svg">
<path fill-rule="evenodd" clip-rule="evenodd" d="M77.5646 19.1075L71.7496 0.277466L65.9346 19.1075L54.6846 24.465L65.9846 29.845L71.7496 46.32L77.5146 29.845L88.8146 24.465L77.5646 19.1075ZM70.0646 22.6775L71.7496 17.2225L73.4346 22.68L77.1846 24.465L73.4846 26.2275L71.7496 31.1825L70.0146 26.2275L66.3146 24.465L70.0646 22.6775Z" fill="black"/>
<path d="M33 25L35.5 15L38 25L45.5 27.5L38 30L35.5 40L33 30L25.5 27.5L33 25Z" fill="black"/>
<path fill-rule="evenodd" clip-rule="evenodd" d="M18 84.3749V84.9899C18 86.316 17.4732 87.5878 16.5355 88.5255C15.5979 89.4631 14.3261 89.9899 13 89.9899H5.5C4.17392 89.9899 2.90215 89.4631 1.96447 88.5255C1.02678 87.5878 0.5 86.316 0.5 84.9899V57.5024C0.5 56.1763 1.02678 54.9046 1.96447 53.9669C2.90215 53.0292 4.17392 52.5024 5.5 52.5024H13C14.1261 52.5019 15.2193 52.8816 16.1027 53.5799C16.9861 54.2781 17.6079 55.2542 17.8675 56.3499C21.1775 55.1574 25.045 53.7374 26.2275 53.1974C27.2325 52.7399 28.3925 52.5849 29.3575 52.5274C30.3534 52.4791 31.3514 52.4967 32.345 52.5799C33.4576 52.6686 34.5654 52.8087 35.665 52.9999L35.7225 53.0099L35.74 53.0124H35.7475L35.7925 53.0224L52.5175 56.7724L52.62 56.8074L52.6475 56.8174L52.7625 56.8524C53.484 57.0639 54.2128 57.2499 54.9475 57.4099C56.385 57.7224 58.1975 58.0149 59.885 58.0149C61.445 58.0149 63.06 58.5974 63.92 60.1774C64.66 61.5324 64.4875 63.0224 64.2125 64.0524C63.865 65.3374 63.15 66.6874 62.2425 67.8349C63.4675 67.3724 64.81 66.8249 66.25 66.2349L66.5575 66.1099C70.615 64.4424 75.425 62.4674 79.67 61.7674C84.52 60.9649 88.0475 62.7249 89.6475 65.8474C91.0725 68.6274 90.7425 72.2749 88.5975 74.4724C88.06 75.0249 87.24 75.6049 86.4175 76.1374C85.5375 76.7099 84.455 77.3524 83.2525 78.0374C80.49 79.5844 77.6935 81.0697 74.865 82.4924C68.935 85.4999 62.72 88.4249 60.745 89.1474C58.455 89.9849 55.995 90.0649 53.6325 89.9424C52.2058 89.8538 50.7813 89.733 49.36 89.5799C48.3195 89.4722 47.2777 89.3764 46.235 89.2924C41.415 88.9274 37.715 87.7499 34.31 86.6674L33.895 86.5349C30.375 85.4199 27.1 84.4274 22.7625 84.2524C21.7725 84.2124 19.7925 84.2899 18 84.3749ZM28.3 57.7474C28.4625 57.6724 28.8875 57.5649 29.645 57.5199C30.355 57.4774 31.165 57.5049 31.9575 57.5649C32.9058 57.6412 33.8501 57.7605 34.7875 57.9224H34.795L51.2125 61.6049L51.325 61.6399C52.1695 61.8885 53.0225 62.107 53.8825 62.2949C55.345 62.6149 57.3075 62.9499 59.305 63.0074C59.1267 63.4886 58.8872 63.9448 58.5925 64.3649C58.1925 64.9449 57.755 65.3924 57.395 65.6499C56.355 66.3949 55.515 66.7049 55.005 66.8374C54.8313 66.885 54.6541 66.9184 54.475 66.9374H54.42L41.015 66.7774L40.54 71.7374L40.6725 71.7624L41.055 71.8299L42.445 72.0749C43.6125 72.2799 45.215 72.5549 46.96 72.8399C50.395 73.3999 54.535 74.0199 56.885 74.1624C58.51 74.2624 60.4 73.7624 62.1575 73.1749C63.99 72.5624 66.0625 71.7149 68.1475 70.8599C72.44 69.0999 76.8125 67.3074 80.485 66.6999C83.66 66.1749 84.7925 67.3349 85.1975 68.1274C85.78 69.2649 85.465 70.5274 85.0175 70.9824C84.91 71.0949 84.5175 71.4124 83.6975 71.9449C82.9325 72.4374 81.945 73.0299 80.785 73.6874C78.0907 75.1958 75.3633 76.6445 72.605 78.0324C66.625 81.0649 60.675 83.8474 59.025 84.4524C57.69 84.9424 56.0375 85.0599 53.89 84.9499C52.6249 84.8754 51.362 84.7679 50.1025 84.6274C48.9407 84.5052 47.7772 84.3985 46.6125 84.3074C42.3825 83.9874 39.1675 82.9649 35.72 81.8699L35.4075 81.7699C31.8375 80.6374 28.0175 79.4599 22.965 79.2574C21.8275 79.2124 19.8025 79.2824 18 79.3674V61.6149C21.515 60.3574 26.7175 58.4699 28.3 57.7474ZM13 57.4999H5.5V84.9874H13V57.4999Z" fill="black"/>
</svg>
