<svg width="1440" height="1379" viewBox="0 0 1440 1379" fill="none" xmlns="http://www.w3.org/2000/svg">
<path fill-rule="evenodd" clip-rule="evenodd" d="M1632.66 568.923C1669.43 647.69 1909.04 884.738 1663.7 996.788C1384.11 1124.48 1364.81 942.86 914.951 1019.66C461.343 1097.1 520.344 981.32 219.158 962.397C-24.9394 947.06 -331.904 919.422 -345.199 841.951C-358.488 764.513 -274.491 445.068 4.31158 342.069C277.104 187.214 488.219 446.121 793.65 384.778C1112 320.841 1357.76 373.796 1620.26 365.478C1939.2 355.371 1596.55 491.577 1632.66 568.923Z" fill="#F0B6B6"/>
<path fill-rule="evenodd" clip-rule="evenodd" d="M1625.38 569.082C1658.59 629.165 1886.42 804.616 1638.37 902.473C1355.69 1013.99 1344.1 872.726 894.623 951.519C441.399 1030.97 504.747 937.949 206.743 935.679C-34.7749 933.84 -338.149 924.994 -348.115 864.948C-358.076 804.928 -261.454 551.559 19.4176 459.39C296.485 326.909 495.148 520.645 800.703 459.953C1119.18 396.694 1360.79 427.89 1621.55 410.46C1938.37 389.284 1592.78 510.083 1625.38 569.082Z" fill="#FFD5D5"/>
</svg>
