<svg width="1440" height="1153" viewBox="0 0 1440 1153" fill="none" xmlns="http://www.w3.org/2000/svg">
<path fill-rule="evenodd" clip-rule="evenodd" d="M1523.02 399.065C1556.82 454.503 1775.77 610.849 1553.26 713.933C1299.68 831.409 1281.28 698.25 872.684 791.827C460.678 886.184 513.768 795.497 239.873 805.967C17.8936 814.453 -261.296 818.93 -273.748 762.542C-286.194 706.18 -211.34 462.378 41.6309 363.286C288.894 226.215 482.038 401.095 759.414 330.737C1048.52 257.403 1272.19 276.687 1510.79 249.156C1800.69 215.707 1489.83 344.627 1523.02 399.065Z" fill="#F0B6B6"/>
<path fill-rule="evenodd" clip-rule="evenodd" d="M1513.78 372.293C1543.71 411.971 1749.89 516.362 1524.44 607.474C1267.51 711.305 1257.47 612.188 849.285 707.446C437.695 803.498 495.502 732.008 225.057 756.526C5.87476 776.396 -269.421 796.724 -278.262 755.035C-287.1 713.364 -198.554 525.296 56.6614 435.339C308.56 317.141 488.201 437.05 765.711 367.241C1054.96 294.479 1274.12 295.409 1510.83 260.193C1798.43 217.406 1484.39 333.331 1513.78 372.293Z" fill="#FFD5D5"/>
</svg>
