<svg width="66" height="73" viewBox="0 0 66 73" fill="none" xmlns="http://www.w3.org/2000/svg">
<path d="M65.0139 51.9541L36.8431 36.599L65.0139 21.2415C65.6056 20.9247 66 20.3347 66 19.6576C66 18.6565 65.1394 17.844 64.0791 17.844C63.7154 17.844 63.3748 17.9407 63.0853 18.1052L63.093 18.1003L34.9196 33.4554V2.74279C34.9196 1.74169 34.0591 0.929199 32.9987 0.929199C31.9384 0.929199 31.0778 1.74169 31.0778 2.74279V33.453L2.90698 18.0979C2.62525 17.9359 2.28461 17.8416 1.92091 17.8416C0.860569 17.8416 0 18.6541 0 19.6552C0 20.3322 0.394428 20.9223 0.975824 21.2342L0.986068 21.239L29.1569 36.5966L0.986068 51.9517C0.407233 52.2709 0.0256121 52.856 0.0256121 53.5234C0.0256121 54.527 0.886181 55.3395 1.94909 55.3395C2.30253 55.337 2.63293 55.25 2.91979 55.0928L2.90954 55.0976L31.0804 39.7401V70.4503C31.0804 71.4514 31.9409 72.2639 33.0013 72.2639C34.0616 72.2639 34.9222 71.4514 34.9222 70.4503V39.7377L63.0956 55.0952C63.3696 55.2476 63.7026 55.337 64.0535 55.337C64.7629 55.337 65.3802 54.9767 65.7157 54.4399L65.7208 54.4302C65.8822 54.1691 65.9769 53.8571 65.9769 53.5234C65.9769 52.8536 65.5928 52.2709 65.0242 51.9565L65.0139 51.9541Z" fill="#166088"/>
</svg>
